# xmcd
#
# Track frame offsets:
# 150
# 12740
# 26575
# 44996
# 60026
# 81626
# 100668
# 119642
# 136632
# 155350
# 177400
# 196106
# 213467
# 237974
# 260308
# 276986
# 293780
# 316024
#
# Disc length: 4513 seconds
#
#
# Revision: 0
# Processed by: cddbd v1.5.2PL0 Copyright (c) Steve Scherf et al.
# Submitted via: FreeRIP 2.96 
#
DISCID=02119f12
DTITLE=Fagner e Zé Ramalho - 
DYEAR=1900
DGENRE=
TTITLE0=Canteiros - Fagner
TTITLE1=Garoto de Aluguel - Zé Ramalho
TTITLE2=Borbulhas de Amor - Fagner
TTITLE3=Mistérios da Meia Noite - Zé Ramalho
TTITLE4=Romance no Deserto - Fagner
TTITLE5=Terceira Lâmina
TTITLE6=Cabecinha no Ombro - Fagner e Roberta Miranda
TTITLE7=Beira Mar - Zé Ramalho
TTITLE8=Deslizes - Fagner
TTITLE9=Admirável Gado Novo - Zé Ramalho
TTITLE10=Revelação - Fagner
TTITLE11=Cidadão - Zé Ramalho
TTITLE12=Noturno - Fagner
TTITLE13=Avôhai - Zé Ramalho
TTITLE14=Fanatismo - Fagner
TTITLE15=Entre a Serpente e a Estrela - Zé Ramalho
TTITLE16=Espumas ao Vento - Fagner
TTITLE17=Chão de Giz - Zé Ramalho
EXTD=
EXTT0=
EXTT1=
EXTT2=
EXTT3=
EXTT4=
EXTT5=
EXTT6=
EXTT7=
EXTT8=
EXTT9=
EXTT10=
EXTT11=
EXTT12=
EXTT13=
EXTT14=
EXTT15=
EXTT16=
EXTT17=
PLAYORDER=
